<svg width="444" height="444" viewBox="0 0 444 444" fill="none" xmlns="http://www.w3.org/2000/svg">
<path d="M221.9 1.69368e-05C342.8 -0.0999831 443.7 96 443.8 221.7C444 345.6 344.9 444.2 220.6 443.7C99.3003 443.3 0.200299 346.4 0.000298883 222.3C-0.199701 97.6 100 1.69368e-05 221.9 1.69368e-05Z" fill="#030E71"/>
<path d="M221.699 432.7C105.399 432.5 11.0993 338 11.1993 221.6C11.2993 105.3 106.099 10.7 222.199 11.1C338.599 11.4 432.799 106.1 432.399 222.4C432.199 338.5 337.599 432.9 221.699 432.7Z" fill="#FEE100"/>
<path d="M381.6 171.8C373.2 165.6 365.7 160.2 358.2 154.7C337.2 139.2 316.1 123.7 295.2 108.1C293.1 106.5 290.899 105.9 288.299 105.9C241.7 106 195 106 148.4 105.9C145.5 105.9 143.5 106.8 141.4 108.8C129.4 120.1 117.4 131.4 105.2 142.5C102.2 145.2 102.6 146.6 105.3 149C117.4 159.7 129.4 170.6 141.2 181.5C143.6 183.8 146 184.5 149.2 184.5C195.2 184.7 241.1 185 287.1 185.2C290.3 185.2 292.899 185.9 295.299 187.9C322.699 210.4 350.2 232.8 377.7 255.2C380.7 257.7 381.899 260.2 381.799 264C381.499 272.7 381.7 281.5 381.7 291.7C373.5 284.9 366.4 279.2 359.4 273.4C337.8 255.4 316.1 237.5 294.5 219.4C292.1 217.4 289.5 217.1 286.6 217.1C240.8 217.1 195 217.1 149.2 217.1C145.5 217.1 142.8 216.2 139.9 213.6C115 191 89.8995 168.7 64.6995 146.4C61.8995 143.9 61.2995 142.6 64.3995 139.8C86.3995 120.2 108.2 100.4 130 80.6C130.5 80.2 131.1 79.8 131.5 79.3C138.9 69.3 148.9 67.8 160.8 68C202.8 68.7 244.7 68.5 286.7 68.5C290.2 68.5 292.999 69.5 295.799 71.6C322.099 91.5 348.4 111.3 374.9 130.9C379.5 134.3 381.8 137.6 381.5 143.5C381.1 152.5 381.6 161.6 381.6 171.8Z" fill="#061389"/>
<path d="M64.1003 279.5C75.1003 288.1 85.5003 296.1 95.8003 304.2C111.6 316.5 127.3 328.8 143 341.1C144.7 342.4 146.5 342.7 148.6 342.7C195.4 342.8 242.2 342.9 289 343.1C291.5 343.1 293.4 342.4 295.4 340.9C309.6 329.1 323.9 317.4 338.2 305.7C341.1 303.4 341 302.2 338 299.9C323.9 289.1 309.9 278 296 266.9C293.5 264.9 291 264.7 288.1 264.8C241.8 265.1 195.5 265.4 149.2 265.9C145.3 265.9 142.4 264.9 139.4 262.2C115.5 240.3 91.4003 218.5 67.3003 196.7C64.1003 193.8 62.5003 190.9 62.7003 186.4C63.1003 177.9 62.8003 169.5 62.8003 159.6C70.2003 166.1 76.7003 171.8 83.2003 177.6C103 195.2 122.8 212.8 142.5 230.4C144.7 232.4 147.2 232.5 149.9 232.5C195.7 232.6 241.5 232.8 287.3 232.9C290.8 232.9 293.6 233.8 296.4 236C323.4 257.7 350.5 279.3 377.6 300.8C380.5 303.1 380.6 304.4 377.8 306.8C350.3 330.5 323 354.3 295.6 378.2C293.8 379.8 291.9 380.1 289.7 380.1C241.9 380.1 194.1 380.1 146.3 380.1C144 380.1 142.2 379.5 140.4 378C116 357.9 91.5003 337.9 67.0003 317.8C65.3003 316.4 63.9003 315 63.9003 312.5C64.2003 301.9 64.1003 291.3 64.1003 279.5Z" fill="#061389"/>
<path d="M380.3 232.8C369.7 224.8 359.1 216.8 348.5 208.8C330.8 195.4 313.2 182.1 295.6 168.7C292.8 166.5 289.9 165.8 286.4 165.8C240.6 165.3 194.8 164.7 149 164.3C145.3 164.3 142.8 163.2 140.3 160.6C136.3 156.2 132 151.9 127.6 147.8C125.1 145.5 125.4 144 127.8 142C132.6 137.9 137.2 133.6 141.8 129.2C143.5 127.5 145.4 127.1 147.6 127.1C194.2 127.2 240.9 127.3 287.5 127.3C290.5 127.3 292.9 128.1 295.2 130C322.7 151.8 350.3 173.6 377.9 195.3C380.8 197.5 382.1 199.9 381.9 203.7C381.6 213.3 381.8 222.9 381.8 232.6C381.4 232.5 380.9 232.6 380.3 232.8Z" fill="#061389"/>
<path d="M63.2007 217.2C75.0007 226.9 85.5007 235.5 96.0007 244.2C110.801 256.4 125.601 268.5 140.301 280.7C143.001 282.9 145.701 283.9 149.301 284C195.301 284.2 241.201 284.6 287.201 284.8C290.601 284.8 293.201 285.6 295.701 287.9C300.401 292.2 305.201 296.3 310.201 300.2C313.101 302.5 312.601 303.9 310.101 305.8C304.601 310.3 299.101 314.9 293.701 319.6C291.801 321.2 289.801 321.8 287.301 321.8C241.201 322.2 195.101 322.7 149.001 323.2C145.901 323.2 143.401 322.7 140.901 320.4C116.401 298.9 91.7007 277.5 67.1007 256.2C64.4007 253.8 63.1007 251.4 63.2007 247.6C63.4007 238.1 63.2007 228.4 63.2007 217.2Z" fill="#061389"/>
</svg>
