<?xml version="1.0" encoding="UTF-8" standalone="no" ?>
<!DOCTYPE svg PUBLIC "-//W3C//DTD SVG 1.1//EN" "http://www.w3.org/Graphics/SVG/1.1/DTD/svg11.dtd">
<svg xmlns="http://www.w3.org/2000/svg" xmlns:xlink="http://www.w3.org/1999/xlink" version="1.1" width="1280" height="1024" viewBox="0 0 1280 1024" xml:space="preserve">
<desc>Created with Fabric.js 4.4.0</desc>
<defs>
</defs>
<g transform="matrix(1 0 0 1 640 512)" id="background-logo"  >
<rect style="stroke: none; stroke-width: 0; stroke-dasharray: none; stroke-linecap: butt; stroke-dashoffset: 0; stroke-linejoin: miter; stroke-miterlimit: 4; fill: rgb(255,255,255); fill-opacity: 0; fill-rule: nonzero; opacity: 1;"  paint-order="stroke"  x="-640" y="-512" rx="0" ry="0" width="1280" height="1024" />
</g>
<g transform="matrix(-3.5881067729352436 0 0 -3.5881067729352454 640.0300657292822 512.3126835845333)" id="logo-logo"  >
<g style=""  paint-order="stroke"   >
		<g transform="matrix(0.2739735465438126 0 0 -0.2739735465438126 0 -2.842171e-14)"  >
<linearGradient id="SVGID_5_5_1_101096" gradientUnits="userSpaceOnUse" gradientTransform="matrix(1 0 0 1 8033.010000000002 819.7149999999999)"  x1="0" y1="0" x2="0" y2="967">
<stop offset="0%" style="stop-color:rgb(23,234,217);stop-opacity: 1"/>
<stop offset="100%" style="stop-color:rgb(96,120,234);stop-opacity: 1"/>
</linearGradient>
<path style="stroke: none; stroke-width: 1; stroke-dasharray: none; stroke-linecap: butt; stroke-dashoffset: 0; stroke-linejoin: miter; stroke-miterlimit: 4; fill: url(#SVGID_5_5_1_101096); fill-rule: nonzero; opacity: 1;"  paint-order="stroke"  transform=" translate(-8528.055000000002, -1302.9775)" d="M 8498.12 1786.24 L 8033.010000000001 1201.25 L 8075.510000000001 1160.11 L 8351.880000000001 1242.9299999999998 L 8387.660000000002 1325.06 L 8166.020000000001 1258.6299999999999 L 8467.670000000002 1666.2399999999998 L 8388.110000000002 1004.1799999999998 L 8190.420000000003 1153.6299999999999 L 8106.580000000003 1130.02 L 8427.100000000002 819.7149999999999 L 9023.100000000002 1242.1799999999998 z M 8854.660000000002 1318.23 L 8631.530000000002 1386.23 L 8562.470000000003 1621.05 z M 8510.300000000001 1672.8600000000001 L 8575.890000000001 1381.4700000000003 L 8497.730000000001 1358.0400000000002 z M 8491.840000000002 1284.8700000000001 L 8611.680000000002 1320.7800000000002 L 8940.630000000003 1239.8500000000001 L 8467.010000000002 976.5980000000002 L 8491.840000000002 1284.8700000000001" stroke-linecap="round" />
</g>
</g>
</g>
</svg>